<svg width="129" height="58" viewBox="0 0 129 58" fill="none" xmlns="http://www.w3.org/2000/svg">
<path d="M26.4341 36.0479C26.1261 39.3092 24.9224 41.8568 22.8228 43.6904C20.7231 45.5101 17.9307 46.4199 14.4453 46.4199C12.0098 46.4199 9.86117 45.846 7.99951 44.6982C6.15186 43.5365 4.72412 41.8918 3.71631 39.7642C2.7085 37.6366 2.18359 35.166 2.1416 32.3525V29.4971C2.1416 26.6136 2.65251 24.0731 3.67432 21.8755C4.69613 19.6779 6.15885 17.9842 8.0625 16.7944C9.98014 15.6047 12.1917 15.0098 14.6973 15.0098C18.0706 15.0098 20.7861 15.9266 22.8438 17.7603C24.9014 19.5939 26.0981 22.1834 26.4341 25.5288H21.1431C20.8911 23.3312 20.2472 21.7495 19.2114 20.7837C18.1896 19.8039 16.6849 19.314 14.6973 19.314C12.3877 19.314 10.61 20.1608 9.36426 21.8545C8.13249 23.5342 7.5026 26.0047 7.47461 29.2661V31.9746C7.47461 35.278 8.0625 37.7975 9.23828 39.5332C10.4281 41.2689 12.1637 42.1367 14.4453 42.1367C16.5309 42.1367 18.0986 41.6678 19.1484 40.73C20.1982 39.7922 20.8631 38.2314 21.1431 36.0479H26.4341ZM40.7114 46.4199C37.478 46.4199 34.8535 45.4051 32.8379 43.3755C30.8363 41.3319 29.8354 38.6164 29.8354 35.229V34.5991C29.8354 32.3315 30.2694 30.3089 31.1372 28.5312C32.019 26.7396 33.2508 25.3468 34.8325 24.353C36.4142 23.3592 38.1779 22.8623 40.1235 22.8623C43.217 22.8623 45.6035 23.8491 47.2832 25.8228C48.9769 27.7964 49.8237 30.5889 49.8237 34.2002V36.2578H34.9795C35.1335 38.1335 35.7563 39.6172 36.8481 40.709C37.9539 41.8008 39.3397 42.3467 41.0054 42.3467C43.3429 42.3467 45.2466 41.4019 46.7163 39.5122L49.4668 42.1367C48.557 43.4945 47.3392 44.5513 45.8135 45.3071C44.3018 46.049 42.6011 46.4199 40.7114 46.4199ZM40.1025 26.9565C38.7028 26.9565 37.569 27.4465 36.7012 28.4263C35.8473 29.4061 35.3014 30.7708 35.0635 32.5205H44.7847V32.1426C44.6727 30.4349 44.2178 29.1471 43.4199 28.2793C42.6221 27.3975 41.5163 26.9565 40.1025 26.9565ZM65.6968 27.9434C65.0249 27.8314 64.332 27.7754 63.6182 27.7754C61.2806 27.7754 59.7059 28.6712 58.894 30.4629V46H53.792V23.2822H58.6631L58.7891 25.8228C60.0208 23.8491 61.7285 22.8623 63.9121 22.8623C64.64 22.8623 65.2419 22.9603 65.7178 23.1562L65.6968 27.9434ZM74.3472 46H69.2451V23.2822H74.3472V46ZM68.9302 17.3823C68.9302 16.5985 69.1751 15.9476 69.665 15.4297C70.1689 14.9118 70.8828 14.6528 71.8066 14.6528C72.7305 14.6528 73.4443 14.9118 73.9482 15.4297C74.4521 15.9476 74.7041 16.5985 74.7041 17.3823C74.7041 18.1522 74.4521 18.7961 73.9482 19.314C73.4443 19.8179 72.7305 20.0698 71.8066 20.0698C70.8828 20.0698 70.1689 19.8179 69.665 19.314C69.1751 18.7961 68.9302 18.1522 68.9302 17.3823ZM99.8574 34.8721C99.8574 38.3994 99.0666 41.2059 97.4849 43.2915C95.9172 45.3771 93.7546 46.4199 90.9971 46.4199C88.3376 46.4199 86.266 45.4611 84.7822 43.5435L84.5303 46H79.9111V13.75H85.0132V25.4658C86.4829 23.7301 88.4635 22.8623 90.9551 22.8623C93.7266 22.8623 95.9032 23.8911 97.4849 25.9487C99.0666 28.0063 99.8574 30.8828 99.8574 34.5781V34.8721ZM94.7554 34.4312C94.7554 31.9676 94.3215 30.12 93.4536 28.8882C92.5858 27.6564 91.326 27.0405 89.6743 27.0405C87.4627 27.0405 85.909 28.0063 85.0132 29.938V39.3022C85.923 41.2759 87.4907 42.2627 89.7163 42.2627C91.312 42.2627 92.5438 41.6678 93.4116 40.478C94.2795 39.2882 94.7274 37.4896 94.7554 35.082V34.4312ZM117.725 46C117.501 45.5661 117.305 44.8592 117.137 43.8794C115.514 45.5731 113.526 46.4199 111.174 46.4199C108.893 46.4199 107.031 45.769 105.589 44.4673C104.148 43.1655 103.427 41.5558 103.427 39.6382C103.427 37.2166 104.323 35.362 106.114 34.0742C107.92 32.7725 110.495 32.1216 113.841 32.1216H116.969V30.6309C116.969 29.4551 116.64 28.5173 115.982 27.8174C115.325 27.1035 114.324 26.7466 112.98 26.7466C111.818 26.7466 110.866 27.0405 110.125 27.6284C109.383 28.2023 109.012 28.9372 109.012 29.833H103.91C103.91 28.5872 104.323 27.4255 105.148 26.3477C105.974 25.2559 107.094 24.402 108.508 23.7861C109.936 23.1702 111.524 22.8623 113.274 22.8623C115.933 22.8623 118.054 23.5342 119.636 24.8779C121.217 26.2077 122.029 28.0833 122.071 30.5049V40.751C122.071 42.7946 122.358 44.4253 122.932 45.6431V46H117.725ZM112.119 42.3257C113.127 42.3257 114.072 42.0807 114.954 41.5908C115.849 41.1009 116.521 40.443 116.969 39.6172V35.334H114.219C112.329 35.334 110.908 35.6629 109.957 36.3208C109.005 36.9787 108.529 37.9095 108.529 39.1133C108.529 40.0931 108.851 40.877 109.495 41.4648C110.153 42.0387 111.027 42.3257 112.119 42.3257Z" fill="#0889D1"/>
<path d="M2.7627 6.2168V9H1.8252V1.89062H4.44727C5.22526 1.89062 5.83398 2.08919 6.27344 2.48633C6.71615 2.88346 6.9375 3.40918 6.9375 4.06348C6.9375 4.75358 6.72103 5.28581 6.28809 5.66016C5.8584 6.03125 5.24154 6.2168 4.4375 6.2168H2.7627ZM2.7627 5.4502H4.44727C4.94857 5.4502 5.33268 5.33301 5.59961 5.09863C5.86654 4.861 6 4.51921 6 4.07324C6 3.65007 5.86654 3.31152 5.59961 3.05762C5.33268 2.80371 4.96647 2.67188 4.50098 2.66211H2.7627V5.4502ZM10.5459 4.52734C10.4092 4.50456 10.2611 4.49316 10.1016 4.49316C9.50911 4.49316 9.1071 4.74544 8.89551 5.25V9H7.99219V3.7168H8.87109L8.88574 4.32715C9.18197 3.85514 9.60189 3.61914 10.1455 3.61914C10.3213 3.61914 10.4548 3.64193 10.5459 3.6875V4.52734ZM11.0439 6.30957C11.0439 5.79199 11.1449 5.3265 11.3467 4.91309C11.5518 4.49967 11.835 4.18066 12.1963 3.95605C12.5609 3.73145 12.9759 3.61914 13.4414 3.61914C14.1608 3.61914 14.7419 3.86816 15.1846 4.36621C15.6305 4.86426 15.8535 5.52669 15.8535 6.35352V6.41699C15.8535 6.93132 15.7542 7.39355 15.5557 7.80371C15.3604 8.21061 15.0788 8.52799 14.7109 8.75586C14.3464 8.98372 13.9264 9.09766 13.4512 9.09766C12.735 9.09766 12.154 8.84863 11.708 8.35059C11.2653 7.85254 11.0439 7.19336 11.0439 6.37305V6.30957ZM11.9521 6.41699C11.9521 7.00293 12.0872 7.47331 12.3574 7.82812C12.6309 8.18294 12.9954 8.36035 13.4512 8.36035C13.9102 8.36035 14.2747 8.18132 14.5449 7.82324C14.8151 7.46191 14.9502 6.95736 14.9502 6.30957C14.9502 5.73014 14.8118 5.26139 14.5352 4.90332C14.2617 4.54199 13.8971 4.36133 13.4414 4.36133C12.9954 4.36133 12.6357 4.53874 12.3623 4.89355C12.0889 5.24837 11.9521 5.75618 11.9521 6.41699ZM17.9189 3.7168V9.61035C17.9189 10.626 17.4583 11.1338 16.5371 11.1338C16.3385 11.1338 16.1546 11.1045 15.9854 11.0459V10.3232C16.0895 10.3493 16.2262 10.3623 16.3955 10.3623C16.5973 10.3623 16.7503 10.307 16.8545 10.1963C16.9619 10.0889 17.0156 9.90007 17.0156 9.62988V3.7168H17.9189ZM16.9229 2.31543C16.9229 2.1722 16.9668 2.05013 17.0547 1.94922C17.1458 1.84505 17.2777 1.79297 17.4502 1.79297C17.626 1.79297 17.7594 1.84342 17.8506 1.94434C17.9417 2.04525 17.9873 2.16895 17.9873 2.31543C17.9873 2.46191 17.9417 2.58398 17.8506 2.68164C17.7594 2.7793 17.626 2.82812 17.4502 2.82812C17.2744 2.82812 17.1426 2.7793 17.0547 2.68164C16.9668 2.58398 16.9229 2.46191 16.9229 2.31543ZM21.5713 9.09766C20.8551 9.09766 20.2725 8.86328 19.8232 8.39453C19.374 7.92253 19.1494 7.29264 19.1494 6.50488V6.33887C19.1494 5.81478 19.2487 5.34766 19.4473 4.9375C19.6491 4.52409 19.929 4.20182 20.2871 3.9707C20.6484 3.73633 21.0391 3.61914 21.459 3.61914C22.1458 3.61914 22.6797 3.84538 23.0605 4.29785C23.4414 4.75033 23.6318 5.39811 23.6318 6.24121V6.61719H20.0527C20.0658 7.13802 20.2171 7.55957 20.5068 7.88184C20.7998 8.20085 21.1709 8.36035 21.6201 8.36035C21.9391 8.36035 22.2093 8.29525 22.4307 8.16504C22.652 8.03483 22.8457 7.8623 23.0117 7.64746L23.5635 8.07715C23.1208 8.75749 22.4567 9.09766 21.5713 9.09766ZM21.459 4.36133C21.0944 4.36133 20.7884 4.49479 20.541 4.76172C20.2936 5.02539 20.1406 5.39648 20.082 5.875H22.7285V5.80664C22.7025 5.34766 22.5788 4.99284 22.3574 4.74219C22.1361 4.48828 21.8366 4.36133 21.459 4.36133ZM26.8008 8.36035C27.123 8.36035 27.4046 8.2627 27.6455 8.06738C27.8864 7.87207 28.0199 7.62793 28.0459 7.33496H28.9004C28.8841 7.6377 28.7799 7.92578 28.5879 8.19922C28.3958 8.47266 28.1387 8.69076 27.8164 8.85352C27.4974 9.01628 27.1589 9.09766 26.8008 9.09766C26.0814 9.09766 25.5085 8.8584 25.082 8.37988C24.6589 7.89811 24.4473 7.24056 24.4473 6.40723V6.25586C24.4473 5.74154 24.5417 5.28418 24.7305 4.88379C24.9193 4.4834 25.1895 4.17253 25.541 3.95117C25.8958 3.72982 26.3141 3.61914 26.7959 3.61914C27.3883 3.61914 27.8799 3.79655 28.2705 4.15137C28.6644 4.50618 28.8743 4.9668 28.9004 5.5332H28.0459C28.0199 5.19141 27.8896 4.91146 27.6553 4.69336C27.4242 4.47201 27.1377 4.36133 26.7959 4.36133C26.3369 4.36133 25.9805 4.52734 25.7266 4.85938C25.4759 5.18815 25.3506 5.66504 25.3506 6.29004V6.46094C25.3506 7.06966 25.4759 7.53841 25.7266 7.86719C25.9772 8.19596 26.3353 8.36035 26.8008 8.36035ZM31.1416 2.4375V3.7168H32.1279V4.41504H31.1416V7.69141C31.1416 7.90299 31.1855 8.0625 31.2734 8.16992C31.3613 8.27409 31.5111 8.32617 31.7227 8.32617C31.8268 8.32617 31.9701 8.30664 32.1523 8.26758V9C31.9147 9.0651 31.6836 9.09766 31.459 9.09766C31.0553 9.09766 30.751 8.97559 30.5459 8.73145C30.3408 8.4873 30.2383 8.14062 30.2383 7.69141V4.41504H29.2764V3.7168H30.2383V2.4375H31.1416Z" fill="black"/>
</svg>
